<svg xmlns="http://www.w3.org/2000/svg" xmlns:xlink="http://www.w3.org/1999/xlink" width="128" zoomAndPan="magnify" viewBox="0 0 96 95.999999" height="128" preserveAspectRatio="xMidYMid meet" version="1.0"><defs><g/></defs><g fill="#000000" fill-opacity="1"><g transform="translate(27.201836, 78.371349)"><g><path d="M 24.1875 -40.296875 L 39.734375 -40.296875 L 39.734375 -38.203125 C 38.710938 -37.773438 37.703125 -37.398438 36.703125 -37.078125 C 35.710938 -36.753906 34.679688 -36.488281 33.609375 -36.28125 C 32.804688 -35.195312 31.878906 -34.035156 30.828125 -32.796875 C 29.785156 -31.566406 28.722656 -30.332031 27.640625 -29.09375 C 26.566406 -27.863281 25.53125 -26.707031 24.53125 -25.625 C 23.539062 -24.550781 22.695312 -23.664062 22 -22.96875 C 22.8125 -21.894531 23.796875 -20.59375 24.953125 -19.0625 C 26.109375 -17.53125 27.359375 -15.90625 28.703125 -14.1875 C 30.046875 -12.46875 31.425781 -10.71875 32.84375 -8.9375 C 34.269531 -7.164062 35.679688 -5.503906 37.078125 -3.953125 L 41.59375 -2.015625 L 41.59375 0 L 31.59375 0 L 29.421875 -1.9375 C 26.578125 -5.476562 24.210938 -8.632812 22.328125 -11.40625 C 20.441406 -14.175781 18.722656 -16.769531 17.171875 -19.1875 L 14.515625 -19.984375 L 14.515625 -3.953125 C 16.285156 -3.628906 18.03125 -2.984375 19.75 -2.015625 L 19.75 0 L 1.9375 0 L 1.9375 -2.015625 C 3.707031 -2.878906 5.476562 -3.523438 7.25 -3.953125 L 7.25 -54.96875 L 1.125 -55.625 L 1.125 -57.71875 C 2.632812 -58.414062 4.4375 -58.976562 6.53125 -59.40625 C 8.625 -59.832031 10.613281 -60.238281 12.5 -60.625 L 14.515625 -60.625 L 14.515625 -22.09375 L 16.609375 -22.09375 C 17.460938 -23.050781 18.398438 -24.117188 19.421875 -25.296875 C 20.441406 -26.484375 21.460938 -27.707031 22.484375 -28.96875 C 23.503906 -30.238281 24.5 -31.488281 25.46875 -32.71875 C 26.4375 -33.957031 27.320312 -35.144531 28.125 -36.28125 C 26.789062 -36.65625 25.476562 -37.296875 24.1875 -38.203125 Z M 24.1875 -40.296875 "/></g></g></g></svg>